<svg id="Capa_1" enable-background="new 0 0 512 512" height="512" viewBox="0 0 512 512" width="512" xmlns="http://www.w3.org/2000/svg"><g><path d="m427.39 455.459h-29.03c-17.565 0-32.986-12.466-36.667-29.641l-28.563-133.273h-187.235c-20.678 0-37.5-16.822-37.5-37.5v-2.5h-41.698c-4.498 0-8.748-1.086-12.5-3.009v17.67c0 4.143-3.358 7.5-7.5 7.5s-7.5-3.357-7.5-7.5v-48.844c-5.12-5.048-15.38-17.318-17.611-36.319h-14.086c-4.142 0-7.5-3.357-7.5-7.5s3.358-7.5 7.5-7.5h14.086c2.231-19 12.491-31.271 17.611-36.319v-48.845c0-4.143 3.358-7.5 7.5-7.5s7.5 3.357 7.5 7.5v48.845c5.12 5.049 15.381 17.319 17.612 36.319h14.086c4.142 0 7.5 3.357 7.5 7.5s-3.358 7.5-7.5 7.5h-14.086c-2.231 19.001-12.492 31.271-17.612 36.319v6.683c0 6.893 5.607 12.5 12.5 12.5h41.698v-126.004h-31.698c-4.142 0-7.5-3.357-7.5-7.5s3.358-7.5 7.5-7.5h31.698v-2.5c0-20.678 16.822-37.5 37.5-37.5h130.469c4.143 0 7.5 3.357 7.5 7.5s-3.357 7.5-7.5 7.5h-130.469c-12.407 0-22.5 10.094-22.5 22.5v73.002h373.517c-1.019-43.343-10.643-77.925-17.696-86.917-4.28-5.456-10.727-8.585-17.686-8.585h-155.166c-4.143 0-7.5-3.357-7.5-7.5s3.357-7.5 7.5-7.5h155.166c11.598 0 22.345 5.222 29.487 14.327 11.766 14.998 20.983 60.538 20.983 103.675s-9.217 88.676-20.982 103.674c-7.144 9.105-17.891 14.327-29.487 14.327h-22.67l25.195 117.556c2.386 11.128-.35 22.585-7.504 31.435-7.154 8.849-17.783 13.924-29.162 13.924zm-78.921-162.914 27.89 130.13c2.209 10.305 11.462 17.784 22.001 17.784h29.03c6.827 0 13.205-3.045 17.497-8.354 4.292-5.311 5.934-12.185 4.503-18.86l-27.14-126.629c-.475-2.214.076-4.524 1.5-6.286 1.425-1.762 3.568-2.785 5.833-2.785h31.947c6.959 0 13.404-3.129 17.686-8.585 7.054-8.992 16.678-43.573 17.696-86.916h-373.517v73.002c0 12.406 10.093 22.5 22.5 22.5h193.153c.1-.002.198-.003.302 0h61.842c4.143 0 7.5 3.357 7.5 7.5s-3.357 7.5-7.5 7.5h-52.723zm-301.774-147.85c-4.462 5.434-10.544 15.478-10.544 29.848 0 14.364 6.077 24.405 10.548 29.849 4.462-5.435 10.545-15.479 10.545-29.849 0-14.359-6.091-24.413-10.549-29.848z"/></g></svg>